<?xml version="1.0" encoding="UTF-8"?>
<svg id="Layer_2" data-name="Layer 2" xmlns="http://www.w3.org/2000/svg" viewBox="0 0 128.49 128.49">
  <defs>
    <style>
      .cls-1 {
        fill: #81d2e7;
      }

      .cls-2 {
        fill: #10182a;
        stroke: #231f20;
        stroke-miterlimit: 10;
      }
    </style>
  </defs>
  <g id="Layer_1-2" data-name="Layer 1">
    <g>
      <rect class="cls-2" x=".5" y=".5" width="127.49" height="127.49"/>
      <path class="cls-1" d="m50.89,9.75l1.17.82,11.89,1.11.35.23,11.66,1.7.82,1.88,1.35.88,2.23-1.23h.53l1.05-.47,1.11.47h1.88l.88,1.23.59-.88,2.64.29.82.82c2.62.39,4.26,1.19,4.92,2.4l4.57.59-.23.82.82.76h1.11l1.11.64c.35.2,1.25.45,2.7.76l.88,1.11,2.11.23,1.35,3.57-1.11,2.29c-.16.23-.31,1.08-.47,2.52l.76,1.46-2.4,4.28c-.35.62-.8,1.13-1.35,1.52-.55.39-1.5.94-2.87,1.64l-1.58.7-6.21,4.34-8.79,4.69-1.46.06-1.23.12c-.35.04-1.05.33-2.11.88l-1.05-.23-.82.94c-.23.23-1.23.8-2.99,1.7l-3.4.59-2.64,1.93-12.25,3.46-.59-.47-3.22,1.35h-1.11l-1.41,1.88v3.05l-.53,2.75v3.22l-1.64,1.35.59.59.23,1.05-.47.47-.59,3.63.59.47-1.46,1.7,1.11,1.05-.88,1.11-.23,2.99-1.05,1.05.23,1.46-1.58,3.46v2.75l-2.99,6.27-1.11,1.64c-.35.51-.82,1.52-1.41,3.05l-1.05.47v1.05l-7.91,7.91-4.57,2.4h-1.93l-.23.64h-2.17l-1.46-1.11c.16-1.37.45-2.36.88-2.99-.55-.94-1.19-1.66-1.93-2.17l1.05-1.64,3.63-3.05,1.58-.47h2.11l1.46,2.17c2.73-2.07,4.26-3.63,4.57-4.69l1.17-.47-.35-.82,1.11-1.93.59-.23.23-1.11.82-.59.23-.82v-2.4l1.7-1.11-.59-.59,1.41-1.93v-.7l.76-2.52.35-1.99c.16-.66.51-1.52,1.05-2.58l-.59-.59.82-.59-.82-.76,1.05-.35-.47-.7,1.35-5.51v-1.93l.82-2.17-1.05-.82,1.05-.23,1.11-2.75-2.4-3.75-.64-2.75v-.82l.64-1.35,2.99-2.17c.35-.9.59-1.37.7-1.41l-.47-1.11.23-1.29.23-.23v-2.75l-1.58-1.11.53-.59-.23-2.4.82-1.46-.59-.7h-1.11l.88-2.29.59-.23-.88-.47-.59-2.52-1.05-.23.82-1.11-.82-1.05v-1.46l-.88-.47c.27-.51.49-1.15.64-1.93l-1.35-.82-2.99,2.17v.82l-2.29,1.7-1.58,1.58-2.99,1.41-4.04,3.87-1.11-1.23v-.7l-1.05-.82.18-1.05c.04-.27.57-1.41,1.58-3.4l2.52-2.17,1.11-1.35,4.34-2.4.59-1.17h1.05c.94-.82,1.66-1.27,2.17-1.35l.82-1.05c2.19-1.05,3.36-1.7,3.52-1.93v-.82l-.94-1.64c-.27-.51-1.04-1.41-2.29-2.7l-.53-2.4.53-1.05,3.22-.59c1.6-2.11,3.24-3.67,4.92-4.69l2.17-1.35Zm16.05,12.25l-2.17,1.05-2.99-.23-1.93.23-1.93-.23-1.29,4.92.59,1.11-.35,1.93.35,1.05-1.05,1.7.23,5.39-.82,3.22.59,1.46-.35,2.17.35,1.05-1.23,2.17v3.81c2.15.31,3.79.76,4.92,1.35l2.75-1.11h1.93l1.11-.82,5.74-1.29,17.4-7.32.88-.82c.27-.27,1.05-.64,2.34-1.11v-.35l1.93-.76,3.57-2.99,1.35-2.52c-1.33-2.3-2.77-4.02-4.34-5.16h-.59l-5.74-4.34-3.75-.59-1.05-1.05-3.05-.23-2.23.23-.53-1.11-1.64-.59-3.28,1.46-2.11-.88-1.7.64-1.93-1.46Z"/>
    </g>
  </g>
</svg>