<?xml version="1.0" encoding="UTF-8"?>
<svg id="Layer_2" data-name="Layer 2" xmlns="http://www.w3.org/2000/svg" viewBox="0 0 361.72 403.31">
  <defs>
    <style>
      .cls-1, .cls-2 {
        fill: #51c1b5;
      }

      .cls-2 {
        font-family: OCRAExtended, 'OCR A Extended';
        font-size: 63.94px;
      }
    </style>
  </defs>
  <g id="Layer_1-2" data-name="Layer 1">
    <path class="cls-1" d="m215.68,0c-11.3,0-22.29,1.28-32.85,3.71-23.08,5.31-44.08,16.09-61.54,30.89l-48.35,142.44L0,391.86h51.05l51.92-152.94c26.79,32.47,67.33,53.17,112.71,53.17,80.65,0,146.04-65.39,146.04-146.05S296.33,0,215.68,0Zm0,230.86c-43.72,0-79.71-33.07-84.31-75.57-.34-3.04-.51-6.12-.51-9.25,0-22.76,8.96-43.42,23.56-58.65,15.43-16.12,37.17-26.16,61.26-26.16,46.84,0,84.82,37.97,84.82,84.81s-37.98,84.82-84.82,84.82Z"/>
    <text class="cls-2" transform="translate(80.71 392.01)"><tspan x="0" y="0">antho</tspan></text>
  </g>
</svg>